<svg width="500" height="115" viewBox="0 0 500 115" fill="none" xmlns="http://www.w3.org/2000/svg">
<g clip-path="url(#clip0)">
<path d="M28.5006 92.5834C27.7187 92.5834 27.084 92.9564 27.084 93.4161V95.0816C27.084 95.5412 27.7187 95.9143 28.5006 95.9143C29.2825 95.9143 29.9172 95.5412 29.9172 95.0816V93.4161C29.9172 92.9564 29.2825 92.5834 28.5006 92.5834Z" fill="#FFBC6B"/>
<path d="M28.5006 97.5798C27.7187 97.5798 27.084 97.9529 27.084 98.4125V100.078C27.084 100.538 27.7187 100.911 28.5006 100.911C29.2825 100.911 29.9172 100.538 29.9172 100.078V98.4125C29.9172 97.9529 29.2825 97.5798 28.5006 97.5798Z" fill="#FFBC6B"/>
<path d="M28.5006 87.5868C27.7187 87.5868 27.084 87.9599 27.084 88.4195V90.085C27.084 90.5446 27.7187 90.9177 28.5006 90.9177C29.2825 90.9177 29.9172 90.5446 29.9172 90.085V88.4195C29.9172 87.9599 29.2825 87.5868 28.5006 87.5868Z" fill="#FFBC6B"/>
<path d="M34.1676 92.5834C33.3857 92.5834 32.751 92.9564 32.751 93.4161V95.0816C32.751 95.5412 33.3857 95.9143 34.1676 95.9143C34.9495 95.9143 35.5842 95.5412 35.5842 95.0816V93.4161C35.5844 92.9564 34.9497 92.5834 34.1676 92.5834Z" fill="#FFBC6B"/>
<path d="M34.1676 87.5868C33.3857 87.5868 32.751 87.9599 32.751 88.4195V90.085C32.751 90.5446 33.3857 90.9177 34.1676 90.9177C34.9495 90.9177 35.5842 90.5446 35.5842 90.085V88.4195C35.5844 87.9599 34.9497 87.5868 34.1676 87.5868Z" fill="#FFBC6B"/>
<path d="M34.1676 97.5798C33.3857 97.5798 32.751 97.9529 32.751 98.4125V100.078C32.751 100.538 33.3857 100.911 34.1676 100.911C34.9495 100.911 35.5842 100.538 35.5842 100.078V98.4125C35.5844 97.9529 34.9497 97.5798 34.1676 97.5798Z" fill="#FFBC6B"/>
<path d="M102.168 65.1028H99.3343V62.6046C99.3343 62.1449 98.6996 61.7719 97.9176 61.7719H89.4176C88.6357 61.7719 88.001 62.1449 88.001 62.6046V65.1028H85.1676C84.3857 65.1028 83.751 65.4759 83.751 65.9355V79.2593H82.3344V76.7611C82.3344 76.3014 81.6997 75.9284 80.9178 75.9284H79.501V75.0957C79.501 74.636 78.8664 74.263 78.0844 74.263C77.3025 74.263 76.6678 74.636 76.6678 75.0957V75.9284H75.251C74.4691 75.9284 73.8344 76.3014 73.8344 76.7611V79.2593H69.5844V62.6046C69.5844 62.1449 68.9497 61.7719 68.1678 61.7719H63.9178V56.7754C63.9176 56.3157 63.283 55.9426 62.501 55.9426H45.501C44.7191 55.9426 44.0844 56.3157 44.0844 56.7753V61.7718H39.8344C39.0525 61.7718 38.4178 62.1448 38.4178 62.6045V84.2557H35.5844V81.7575C35.5844 81.2979 34.9497 80.9248 34.1678 80.9248H25.6678C24.8859 80.9248 24.2512 81.2979 24.2512 81.7575V84.2557H22.8346C22.0526 84.2557 21.418 84.6288 21.418 85.0884V105.074C21.418 105.534 22.0526 105.907 22.8346 105.907H39.8346H51.168H85.168H102.168C102.95 105.907 103.585 105.534 103.585 105.074V65.9355C103.584 65.4759 102.95 65.1028 102.168 65.1028ZM61.0844 65.9355C61.0844 65.4759 61.7191 65.1028 62.501 65.1028C63.283 65.1028 63.9176 65.4759 63.9176 65.9355V79.2593H61.0843V65.9355H61.0844ZM55.4176 60.1064C55.4176 59.6467 56.0523 59.2736 56.8343 59.2736C57.6162 59.2736 58.2509 59.6467 58.2509 60.1064V62.6046C58.2509 63.0642 57.6162 63.4373 56.8343 63.4373C56.0523 63.4373 55.4176 63.0642 55.4176 62.6046V60.1064ZM55.4176 65.9355C55.4176 65.4759 56.0523 65.1028 56.8343 65.1028C57.6162 65.1028 58.2509 65.4759 58.2509 65.9355V79.2593H55.4175V65.9355H55.4176ZM49.751 60.1064C49.751 59.6467 50.3857 59.2736 51.1676 59.2736C51.9496 59.2736 52.5843 59.6467 52.5843 60.1064V62.6046C52.5843 63.0642 51.9496 63.4373 51.1676 63.4373C50.3857 63.4373 49.751 63.0642 49.751 62.6046V60.1064ZM44.0844 65.9355C44.0844 65.4759 44.7191 65.1028 45.501 65.1028C46.283 65.1028 46.9176 65.4759 46.9176 65.9355V84.2557H44.0842V65.9355H44.0844ZM49.751 102.576H45.501C44.7191 102.576 44.0844 102.203 44.0844 101.743C44.0844 101.284 44.7191 100.911 45.501 100.911H49.751V102.576ZM49.751 99.245H45.501C44.7191 99.245 44.0844 98.872 44.0844 98.4123C44.0844 97.9527 44.7191 97.5796 45.501 97.5796H49.751V99.245ZM49.751 95.9141H45.501C44.7191 95.9141 44.0844 95.541 44.0844 95.0814C44.0844 94.6218 44.7191 94.2487 45.501 94.2487H49.751V95.9141ZM49.751 92.5832H45.501C44.7191 92.5832 44.0844 92.2101 44.0844 91.7505C44.0844 91.2908 44.7191 90.9178 45.501 90.9178H49.751V92.5832ZM49.751 87.5867H39.8344C39.0525 87.5867 38.4178 87.9598 38.4178 88.4195V104.241H24.251V85.9212H25.6676H34.1676H39.8342H45.501H49.751V87.5867ZM49.751 80.0921V65.9355C49.751 65.4759 50.3857 65.1028 51.1676 65.1028C51.9496 65.1028 52.5843 65.4759 52.5843 65.9355V79.2593H51.1676C50.3857 79.2593 49.751 79.6324 49.751 80.0921ZM83.751 104.241H80.9176V83.423C80.9176 82.9634 80.283 82.5903 79.501 82.5903C78.7191 82.5903 78.0844 82.9634 78.0844 83.423V104.241H75.251V83.423C75.251 82.9634 74.6164 82.5903 73.8344 82.5903C73.0525 82.5903 72.4178 82.9634 72.4178 83.423V104.241H69.5844V83.423C69.5844 82.9634 68.9497 82.5903 68.1678 82.5903C67.3859 82.5903 66.7512 82.9634 66.7512 83.423V104.241H63.9178V83.423C63.9178 82.9634 63.2831 82.5903 62.5012 82.5903C61.7193 82.5903 61.0846 82.9634 61.0846 83.423V104.241H58.251V83.423C58.251 82.9634 57.6164 82.5903 56.8344 82.5903C56.0525 82.5903 55.4178 82.9634 55.4178 83.423V104.241H52.5844V101.743V98.4123V95.0814V91.7505V88.4195V85.0885V80.9248H56.8344H62.501H68.1676H75.251H80.9176H83.751V104.241ZM92.251 101.073C92.251 101.533 91.6163 101.906 90.8344 101.906C90.0525 101.906 89.4178 101.533 89.4178 101.073V99.4074C89.4178 98.9478 90.0525 98.5747 90.8344 98.5747C91.6163 98.5747 92.251 98.9478 92.251 99.4074V101.073ZM92.251 96.0765C92.251 96.5361 91.6163 96.9092 90.8344 96.9092C90.0525 96.9092 89.4178 96.5361 89.4178 96.0765V94.411C89.4178 93.9513 90.0525 93.5783 90.8344 93.5783C91.6163 93.5783 92.251 93.9513 92.251 94.411V96.0765ZM92.251 91.0801C92.251 91.5397 91.6163 91.9128 90.8344 91.9128C90.0525 91.9128 89.4178 91.5397 89.4178 91.0801V89.4145C89.4178 88.9549 90.0525 88.5818 90.8344 88.5818C91.6163 88.5818 92.251 88.9549 92.251 89.4145V91.0801ZM92.251 86.0836C92.251 86.5433 91.6163 86.9163 90.8344 86.9163C90.0525 86.9163 89.4178 86.5433 89.4178 86.0836V84.4181C89.4178 83.9585 90.0525 83.5854 90.8344 83.5854C91.6163 83.5854 92.251 83.9585 92.251 84.4181V86.0836ZM92.251 81.0872C92.251 81.5468 91.6163 81.9199 90.8344 81.9199C90.0525 81.9199 89.4178 81.5468 89.4178 81.0872V79.4217C89.4178 78.962 90.0525 78.589 90.8344 78.589C91.6163 78.589 92.251 78.962 92.251 79.4217V81.0872ZM92.251 76.0908C92.251 76.5504 91.6163 76.9235 90.8344 76.9235C90.0525 76.9235 89.4178 76.5504 89.4178 76.0908V74.4252C89.4178 73.9656 90.0525 73.5925 90.8344 73.5925C91.6163 73.5925 92.251 73.9656 92.251 74.4252V76.0908ZM92.251 71.0943C92.251 71.554 91.6163 71.927 90.8344 71.927C90.0525 71.927 89.4178 71.554 89.4178 71.0943V69.4288C89.4178 68.9692 90.0525 68.5961 90.8344 68.5961C91.6163 68.5961 92.251 68.9692 92.251 69.4288V71.0943ZM97.9176 101.073C97.9176 101.533 97.283 101.906 96.501 101.906C95.7191 101.906 95.0844 101.533 95.0844 101.073V99.4074C95.0844 98.9478 95.7191 98.5747 96.501 98.5747C97.283 98.5747 97.9176 98.9478 97.9176 99.4074V101.073ZM97.9176 96.0765C97.9176 96.5361 97.283 96.9092 96.501 96.9092C95.7191 96.9092 95.0844 96.5361 95.0844 96.0765V94.411C95.0844 93.9513 95.7191 93.5783 96.501 93.5783C97.283 93.5783 97.9176 93.9513 97.9176 94.411V96.0765ZM97.9176 91.0801C97.9176 91.5397 97.283 91.9128 96.501 91.9128C95.7191 91.9128 95.0844 91.5397 95.0844 91.0801V89.4145C95.0844 88.9549 95.7191 88.5818 96.501 88.5818C97.283 88.5818 97.9176 88.9549 97.9176 89.4145V91.0801ZM97.9176 86.0836C97.9176 86.5433 97.283 86.9163 96.501 86.9163C95.7191 86.9163 95.0844 86.5433 95.0844 86.0836V84.4181C95.0844 83.9585 95.7191 83.5854 96.501 83.5854C97.283 83.5854 97.9176 83.9585 97.9176 84.4181V86.0836ZM97.9176 81.0872C97.9176 81.5468 97.283 81.9199 96.501 81.9199C95.7191 81.9199 95.0844 81.5468 95.0844 81.0872V79.4217C95.0844 78.962 95.7191 78.589 96.501 78.589C97.283 78.589 97.9176 78.962 97.9176 79.4217V81.0872ZM97.9176 76.0908C97.9176 76.5504 97.283 76.9235 96.501 76.9235C95.7191 76.9235 95.0844 76.5504 95.0844 76.0908V74.4252C95.0844 73.9656 95.7191 73.5925 96.501 73.5925C97.283 73.5925 97.9176 73.9656 97.9176 74.4252V76.0908ZM97.9176 71.0943C97.9176 71.554 97.283 71.927 96.501 71.927C95.7191 71.927 95.0844 71.554 95.0844 71.0943V69.4288C95.0844 68.9692 95.7191 68.5961 96.501 68.5961C97.283 68.5961 97.9176 68.9692 97.9176 69.4288V71.0943Z" fill="#FFBC6B"/>
</g>
<rect x="0.5" y="0.5" width="94" height="94" stroke="#B8121A"/>
<path d="M63.664 57.056V59.264H56.392V64.52H62.392V66.632H56.392L56.392 74H53.656L53.656 57.056H63.664ZM68.8373 59.264V64.4H75.0773V66.512H68.8373V71.768H75.7973V74H66.1013V57.056H75.7973V59.264H68.8373ZM88.5569 70.328H81.4049L80.1089 74H77.1809L83.4209 57.32H86.5649L92.7809 74H89.8529L88.5569 70.328ZM87.7889 68.216L84.9809 60.296L82.1729 68.216H87.7889ZM105.708 57.056V59.264H100.98V74H98.2203V59.264H93.5163V57.056H105.708ZM110.366 57.056V67.112C110.366 68.616 110.694 69.736 111.35 70.472C112.022 71.208 112.958 71.576 114.158 71.576C115.342 71.576 116.262 71.208 116.918 70.472C117.59 69.736 117.926 68.616 117.926 67.112V57.056H120.662V67.112C120.662 69.432 120.062 71.192 118.862 72.392C117.662 73.576 116.078 74.168 114.11 74.168C112.158 74.168 110.59 73.576 109.406 72.392C108.222 71.192 107.63 69.432 107.63 67.112V57.056H110.366ZM132.755 74L128.531 67.232H126.587V74H123.851V57.056H129.827C131.763 57.056 133.227 57.528 134.219 58.472C135.227 59.416 135.731 60.664 135.731 62.216C135.731 63.544 135.355 64.632 134.603 65.48C133.867 66.328 132.795 66.872 131.387 67.112L135.827 74H132.755ZM126.587 65.288H129.611C131.819 65.288 132.923 64.312 132.923 62.36C132.923 61.432 132.651 60.712 132.107 60.2C131.579 59.672 130.747 59.408 129.611 59.408H126.587V65.288ZM140.931 59.264V64.4H147.171V66.512H140.931V71.768H147.891V74H138.195V57.056H147.891V59.264H140.931ZM165.091 65.504C165.091 67.216 164.739 68.712 164.035 69.992C163.347 71.256 162.331 72.24 160.987 72.944C159.659 73.648 158.067 74 156.211 74H150.547V57.056H156.211C158.067 57.056 159.659 57.408 160.987 58.112C162.331 58.8 163.347 59.776 164.035 61.04C164.739 62.304 165.091 63.792 165.091 65.504ZM155.995 71.528C158.027 71.528 159.587 71 160.675 69.944C161.763 68.888 162.307 67.408 162.307 65.504C162.307 63.6 161.763 62.12 160.675 61.064C159.587 60.008 158.027 59.48 155.995 59.48H153.283V71.528H155.995ZM181.029 56.888C183.109 56.888 184.837 57.416 186.213 58.472C187.589 59.528 188.517 60.96 188.997 62.768H186.093C185.693 61.744 185.053 60.936 184.173 60.344C183.309 59.736 182.245 59.432 180.981 59.432C179.973 59.432 179.069 59.68 178.269 60.176C177.485 60.672 176.861 61.384 176.397 62.312C175.949 63.224 175.725 64.296 175.725 65.528C175.725 66.744 175.949 67.816 176.397 68.744C176.861 69.656 177.485 70.36 178.269 70.856C179.069 71.352 179.973 71.6 180.981 71.6C182.245 71.6 183.309 71.304 184.173 70.712C185.053 70.104 185.693 69.296 186.093 68.288H188.997C188.517 70.096 187.589 71.528 186.213 72.584C184.837 73.624 183.109 74.144 181.029 74.144C179.429 74.144 178.013 73.784 176.781 73.064C175.549 72.328 174.597 71.312 173.925 70.016C173.253 68.704 172.917 67.208 172.917 65.528C172.917 63.848 173.253 62.36 173.925 61.064C174.597 59.752 175.549 58.728 176.781 57.992C178.013 57.256 179.429 56.888 181.029 56.888ZM194.462 71.864H200.318V74H191.726V57.056H194.462V71.864ZM205.197 57.056V74H202.461V57.056H205.197ZM211.244 59.264V64.4H217.484V66.512H211.244V71.768H218.204V74H208.508V57.056H218.204V59.264H211.244ZM234.563 74H231.827L223.595 61.496V74H220.859V57.08H223.595L231.827 69.632V57.08H234.563V74ZM248.771 57.056V59.264H244.043V74H241.283V59.264H236.579V57.056H248.771ZM261.948 69.488C261.948 70.32 261.748 71.096 261.348 71.816C260.948 72.52 260.34 73.088 259.524 73.52C258.708 73.952 257.708 74.168 256.524 74.168C255.372 74.168 254.34 73.968 253.428 73.568C252.516 73.152 251.788 72.576 251.244 71.84C250.7 71.104 250.388 70.256 250.308 69.296H253.236C253.316 70.032 253.628 70.664 254.172 71.192C254.732 71.72 255.476 71.984 256.404 71.984C257.236 71.984 257.876 71.76 258.324 71.312C258.788 70.864 259.02 70.288 259.02 69.584C259.02 68.976 258.852 68.48 258.516 68.096C258.18 67.696 257.764 67.384 257.268 67.16C256.772 66.936 256.092 66.68 255.228 66.392C254.172 66.056 253.308 65.72 252.636 65.384C251.98 65.048 251.42 64.56 250.956 63.92C250.492 63.28 250.26 62.44 250.26 61.4C250.26 60.488 250.484 59.688 250.932 59C251.38 58.312 252.02 57.784 252.852 57.416C253.684 57.032 254.644 56.84 255.732 56.84C257.46 56.84 258.828 57.256 259.836 58.088C260.86 58.92 261.444 60.008 261.588 61.352H258.636C258.524 60.712 258.22 60.168 257.724 59.72C257.244 59.256 256.58 59.024 255.732 59.024C254.964 59.024 254.348 59.224 253.884 59.624C253.42 60.008 253.188 60.568 253.188 61.304C253.188 61.88 253.348 62.36 253.668 62.744C253.988 63.112 254.388 63.408 254.868 63.632C255.364 63.84 256.036 64.088 256.884 64.376C257.956 64.712 258.828 65.056 259.5 65.408C260.188 65.744 260.764 66.24 261.228 66.896C261.708 67.552 261.948 68.416 261.948 69.488Z" fill="#464069"/>
<path d="M272.472 70.976V74H269.376V70.976H272.472Z" fill="#B8121A"/>
<defs>
<clipPath id="clip0">
<rect width="85" height="49.9644" fill="white" transform="translate(20.001 55.9426)"/>
</clipPath>
<clipPath id="clip1">
<rect width="85" height="49.9644" fill="white" transform="translate(207.001 55.9426)"/>
</clipPath>
<clipPath id="clip2">
<rect width="106" height="63.05" fill="white" transform="translate(394.001 51.7791)"/>
</clipPath>
</defs>
</svg>
