<svg width="259" height="304" viewBox="0 0 259 304" fill="none" xmlns="http://www.w3.org/2000/svg">
<path d="M175.5 0L194.022 57.0061H253.962L205.47 92.2378L223.992 149.244L175.5 114.012L127.008 149.244L145.53 92.2378L97.0378 57.0061H156.978L175.5 0Z" fill="#FFBC6B"/>
<path d="M41.5 134L50.8173 162.676H80.9688L56.5758 180.399L65.8931 209.074L41.5 191.352L17.1069 209.074L26.4242 180.399L2.03115 162.676H32.1827L41.5 134Z" fill="#FFBC6B"/>
<path d="M210.5 207L221.389 240.513H256.626L228.119 261.225L239.008 294.738L210.5 274.026L181.992 294.738L192.881 261.225L164.374 240.513H199.611L210.5 207Z" fill="#FFBC6B"/>
</svg>
